<svg height="512pt" viewBox="0 0 512 512" width="512pt" xmlns="http://www.w3.org/2000/svg"><path d="m136.445312 0c-75.234374 0-136.445312 61.210938-136.445312 136.445312 0 75.238282 61.210938 136.445313 136.445312 136.445313 75.238282 0 136.445313-61.207031 136.445313-136.445313 0-75.234374-61.207031-136.445312-136.445313-136.445312zm15 197.421875v10.566406c0 8.285157-6.714843 15-15 15-8.285156 0-15-6.714843-15-15v-10.527343c-10.261718-3.851563-18.648437-11.601563-22.980468-21.839844-3.226563-7.628906.34375-16.429688 7.972656-19.65625 7.632812-3.230469 16.433594.34375 19.660156 7.972656 1.574219 3.726562 5.734375 6.226562 10.347656 6.226562 6.058594 0 10.984376-4.195312 10.984376-9.355468 0-5.164063-4.925782-9.359375-10.984376-9.359375-22.597656 0-40.984374-17.65625-40.984374-39.359375 0-16.621094 10.785156-30.855469 25.984374-36.617188v-10.570312c0-8.285156 6.714844-15 15-15 8.285157 0 15 6.714844 15 15v10.582031c10.648438 4.046875 19.351563 12.285156 23.453126 22.957031 2.972656 7.734375-.882813 16.414063-8.617188 19.386719-7.730469 2.972656-16.410156-.886719-19.382812-8.617187-1.492188-3.875-5.691407-6.480469-10.453126-6.480469-6.054687 0-10.984374 4.199219-10.984374 9.359375s4.929687 9.359375 10.984374 9.359375c22.601563 0 40.984376 17.65625 40.984376 39.359375 0 16.617187-10.785157 30.851562-25.984376 36.613281zm0 0"/><path d="m375.554688 239.105469c-75.238282 0-136.445313 61.210937-136.445313 136.449219 0 75.234374 61.207031 136.445312 136.445313 136.445312 75.234374 0 136.445312-61.210938 136.445312-136.445312 0-75.238282-61.210938-136.449219-136.445312-136.449219zm-3.027344 125.296875c8.285156 0 15 6.714844 15 15s-6.714844 15-15 15h-17.285156v1.316406c0 15.554688 12.65625 28.210938 28.210937 28.210938 9.792969 0 19.0625-5.269532 24.179687-13.75 4.285157-7.09375 13.503907-9.371094 20.59375-5.089844 7.09375 4.28125 9.371094 13.503906 5.089844 20.59375-10.519531 17.421875-29.625 28.246094-49.863281 28.246094-32.097656 0-58.210937-26.113282-58.210937-58.210938v-1.316406h-23.84375c-8.28125 0-15-6.714844-15-15 0-8.28125 6.71875-15 15-15h23.84375v-5.933594c0-32.097656 26.113281-58.210938 58.210937-58.210938 20.949219 0 40.394531 11.398438 50.738281 29.746094 4.070313 7.214844 1.519532 16.363282-5.699218 20.433594s-16.363282 1.515625-20.433594-5.699219c-5.035156-8.929687-14.464844-14.480469-24.605469-14.480469-15.554687 0-28.210937 12.65625-28.210937 28.210938v5.933594zm0 0"/><path d="m211.199219 438.820312c-2.210938-.597656-4.4375-1.25-6.625-1.9375-7.898438-2.492187-16.324219 1.894532-18.816407 9.792969-2.488281 7.902344 1.894532 16.328125 9.796876 18.816407 2.578124.8125 5.203124 1.582031 7.808593 2.289062 1.3125.355469 2.628907.523438 3.925781.523438 6.609376 0 12.664063-4.402344 14.472657-11.085938 2.164062-7.996094-2.566407-16.234375-10.5625-18.398438zm0 0"/><path d="m169.609375 421.289062c-29.011719-17.128906-51.722656-42.050781-65.941406-71.839843l30.4375 16.710937c7.261719 3.992188 16.378906 1.332032 20.367187-5.925781 3.988282-7.261719 1.332032-16.382813-5.929687-20.371094l-78.671875-43.191406c-4.65625-2.558594-10.316406-2.460937-14.878906.25-4.566407 2.710937-7.359376 7.636719-7.339844 12.945313l.300781 89.597656c.027344 8.269531 6.738281 14.949218 15 14.949218h.050781c8.285156-.027343 14.976563-6.765624 14.949219-15.050781l-.113281-34.410156c16.828125 34.003906 43.136718 62.460937 76.519531 82.167969 2.394531 1.414062 5.019531 2.085937 7.609375 2.085937 5.132812 0 10.132812-2.636719 12.933594-7.378906 4.210937-7.132813 1.839844-16.328125-5.292969-20.539063zm0 0"/><path d="m300.867188 73.082031c2.210937.597657 4.4375 1.25 6.621093 1.941407 1.503907.472656 3.023438.699218 4.519531.699218 6.371094 0 12.28125-4.09375 14.300782-10.492187 2.492187-7.902344-1.894532-16.328125-9.792969-18.820313-2.578125-.8125-5.203125-1.582031-7.8125-2.285156-7.996094-2.164062-16.234375 2.5625-18.398437 10.5625-2.160157 7.996094 2.566406 16.234375 10.5625 18.394531zm0 0"/><path d="m342.457031 90.617188c29.011719 17.125 51.726563 42.046874 65.941407 71.835937l-30.4375-16.710937c-7.261719-3.988282-16.378907-1.332032-20.367188 5.929687s-1.332031 16.382813 5.929688 20.367187l78.671874 43.195313c2.25 1.238281 4.738282 1.851563 7.21875 1.851563 2.652344 0 5.304688-.703126 7.660157-2.101563 4.566406-2.714844 7.359375-7.636719 7.339843-12.949219l-.300781-89.59375c-.027343-8.269531-6.738281-14.953125-15-14.953125-.015625 0-.035156 0-.050781 0-8.285156.03125-14.976562 6.769531-14.949219 15.050781l.117188 34.414063c-16.832031-34.003906-43.140625-62.464844-76.523438-82.167969-7.136719-4.214844-16.332031-1.84375-20.542969 5.289063-4.210937 7.132812-1.839843 16.332031 5.292969 20.542969zm0 0"/></svg>